<svg xmlns="http://www.w3.org/2000/svg" width="29" height="30" viewBox="0 0 29 30" fill="none">
  <g opacity="0.25">
    <path d="M13.7817 3.30162C16.7587 3.30162 19.1866 5.68796 19.1866 8.62592V14.3699H11.8662C11.3415 14.3699 10.9267 14.7776 10.9267 15.2933C10.9267 15.7969 11.3415 16.2166 11.8662 16.2166H19.1866V21.9487C19.1866 24.8866 16.7587 27.285 13.7573 27.285H7.81548C4.82628 27.285 2.39832 24.8986 2.39832 21.9607V8.63791C2.39832 5.68796 4.83848 3.30162 7.82768 3.30162H13.7817ZM22.2328 11.1564C22.5925 10.7847 23.1801 10.7847 23.5399 11.1444L27.0414 14.634C27.2213 14.8139 27.3172 15.0417 27.3172 15.2935C27.3172 15.5334 27.2213 15.7732 27.0414 15.9411L23.5399 19.4307C23.36 19.6105 23.1202 19.7065 22.8923 19.7065C22.6525 19.7065 22.4126 19.6105 22.2328 19.4307C21.873 19.0709 21.873 18.4833 22.2328 18.1236L24.1514 16.2169H19.1869V14.3702H24.1514L22.2328 12.4635C21.873 12.1037 21.873 11.5162 22.2328 11.1564Z" fill="#EFEEE0"/>
  </g>
</svg>